<?xml version="1.0" encoding="UTF-8" standalone="no"?>
<svg
   xmlns:dc="http://purl.org/dc/elements/1.1/"
   xmlns:cc="http://creativecommons.org/ns#"
   xmlns:rdf="http://www.w3.org/1999/02/22-rdf-syntax-ns#"
   xmlns:svg="http://www.w3.org/2000/svg"
   xmlns="http://www.w3.org/2000/svg"
   viewBox="0 0 2666.6667 2666.6667"
   height="2666.6667"
   width="2666.6667"
   xml:space="preserve"
   id="svg2"
   version="1.1"><metadata
     id="metadata8"><rdf:RDF><cc:Work
         rdf:about=""><dc:format>image/svg+xml</dc:format><dc:type
           rdf:resource="http://purl.org/dc/dcmitype/StillImage" /></cc:Work></rdf:RDF></metadata><defs
     id="defs6" /><g
     transform="matrix(1.3333333,0,0,-1.3333333,0,2666.6667)"
     id="g10"><g
       transform="scale(0.1)"
       id="g12"><g
         transform="scale(1.22699)"
         id="g14"><path
           id="path16"
           style="fill:#000000;fill-opacity:0;fill-rule:nonzero;stroke:none"
           d="M 0,16296.6 V 0 H 16300 V 16300 L 0,16296.6" /></g><g
         transform="scale(1.03144)"
         id="g18"><path
           id="path20"
           style="fill:#ffffff;fill-opacity:1;fill-rule:nonzero;stroke:none"
           d="m 9694.91,16300 -8.33,-8.8 -358.4,-358.2 366.73,-367.3 367.19,367.3 z m 0,-34.1 333.59,-332.9 -333.59,-333.8 -333.17,333.8 333.17,332.9" /></g><g
         transform="scale(1.01997)"
         id="g22"><path
           id="path24"
           style="fill:#ffffff;fill-opacity:1;fill-rule:nonzero;stroke:none"
           d="m 9803.92,16300 -16.7,-17.2 -171.24,-170.7 187.94,-188.1 188.51,188.1 z m 0,-68.4 120.07,-119.5 -120.07,-120.2 -119.65,120.2 119.65,119.5" /></g><path
         id="path26"
         style="fill:#ffffff;fill-opacity:1;fill-rule:nonzero;stroke:none"
         d="m 9716.42,16097.1 -8.59,-8.5 -167.72,-168.3 176.31,-176.3 176.84,176.3 z m 0.53,-34.6 141.69,-142.2 -141.69,-141.7 -142.22,141.7 142.22,142.2" /><path
         id="path28"
         style="fill:#ffffff;fill-opacity:1;fill-rule:nonzero;stroke:none"
         d="m 10283.1,16097.1 -8.6,-8.5 -167.7,-168.3 176.3,-176.3 176.9,176.3 z m 0,-34.6 142.2,-142.2 -142.2,-141.7 -141.7,141.7 141.7,142.2" /><path
         id="path30"
         style="fill:#ffffff;fill-opacity:1;fill-rule:nonzero;stroke:none"
         d="m 9100.06,11633 -27.7,-286.2 37.22,-23.4 z m -36.69,-490.7 -26.16,-270.7 84.09,-26.6 -7.33,231.7 -27.29,52.3 z m -45.27,-506 -2.74,-29.4 71.85,-19.2 v 25.7 l -69.11,22.9" /><path
         id="path32"
         style="fill:#ffffff;fill-opacity:1;fill-rule:nonzero;stroke:none"
         d="m 9426.04,11801.7 -339.76,-589.5 524,-907.8 v -688.2 l -167.72,-625.8 v -214.8 l 428.2,-428.3 h 257.84 l 428.9,428.3 v 214.8 l -167.9,625.8 v 688.2 l 524.2,907.8 -339.9,589.5 -42.6,-25.1 326,-564.4 -516.7,-895 v -707.3 l 167.8,-626.5 v -187 l -399.9,-400 h -216.9 l -400.03,400 v 187 l 167.85,626.5 v 707.3 l -516.69,895 325.86,564.4 -42.55,25.1" /><path
         id="path34"
         style="fill:#ffffff;fill-opacity:1;fill-rule:nonzero;stroke:none"
         d="m 9600.76,11498.6 -199.22,-345.7 358.49,-621.1 v -914 h 49.47 v 926.8 l -351.49,608.3 185.44,321.2 -42.69,24.5" /><path
         id="path36"
         style="fill:#ffffff;fill-opacity:1;fill-rule:nonzero;stroke:none"
         d="m 9833.01,9034.5 -220.53,-127.3 v -290.9 h 48.95 v 226.6 l 184.89,106.4 h 307.38 l 184.8,-106.4 v -226.6 h 49.1 v 290.9 l -220.7,127.3 h -333.89" /><path
         id="path38"
         style="fill:#ffffff;fill-opacity:1;fill-rule:nonzero;stroke:none"
         d="m 8349.53,11580.6 -272.19,-272 272.19,-272.3 272.13,272.3 z m 0,-69.7 202.48,-202.3 -202.48,-202.6 -202.41,202.6 202.41,202.3" /><path
         id="path40"
         style="fill:#ffffff;fill-opacity:1;fill-rule:nonzero;stroke:none"
         d="m 8349.53,11446.4 -137.89,-137.8 137.89,-138.1 137.96,138.1 z m 0,-69.6 68.18,-68.2 -68.18,-68.8 -68.18,68.8 68.18,68.2" /><path
         id="path42"
         style="fill:#ffffff;fill-opacity:1;fill-rule:nonzero;stroke:none"
         d="m 8443.28,11147.6 -47.4,-12.8 213.52,-796.4 407.03,-167.7 36.69,-517.3 54.4,480 84.69,-35 423.93,-501.4 37.36,32 -431.39,510.2 -571.69,235.5 -207.14,772.9" /><path
         id="path44"
         style="fill:#ffffff;fill-opacity:1;fill-rule:nonzero;stroke:none"
         d="m 8221.16,11177.6 -279.12,-3388.5 918.85,-882.6 -486.86,4167.6 -48.93,-5.9 471.4,-4031.7 -803.32,771.9 276.99,3364.7 -49.01,4.5" /><path
         id="path46"
         style="fill:#ffffff;fill-opacity:1;fill-rule:nonzero;stroke:none"
         d="m 8496.48,9981 -35.02,-34.6 669.56,-669 270.52,-1053.1 270.53,-72.4 174.85,-174.2 h 306.18 l 174.8,174.2 270.1,72.4 271,1053.1 669.6,669 -35.2,34.6 -678.1,-677.9 -267.3,-997.3 -255.6,-68.1 -169.6,-169.4 h -265.7 l -169.39,169.4 -255.68,68.1 -267.4,997.3 -678.15,677.9" /><path
         id="path48"
         style="fill:#ffffff;fill-opacity:1;fill-rule:nonzero;stroke:none"
         d="m 7466.44,11667.1 v -348.5 l 285.9,-460.8 -188.95,-1494.7 -124.65,-124 -188.63,326.4 -68.71,-257.1 779.35,-1349.9 42.55,24.5 -769.1,1332.2 32.96,122.5 160.79,-279.1 181.64,181.6 193.9,1528.8 -288.11,463.4 v 215.7 l 688.2,-688 34.62,35 -771.76,772" /><path
         id="path50"
         style="fill:#ffffff;fill-opacity:1;fill-rule:nonzero;stroke:none"
         d="m 8943.53,15762.7 -582.28,-582.3 -572.62,-2138.1 278.59,-1040.2 -138.56,37.2 -317.4,550.2 v -819.7 l 179.04,-310.6 v -175.8 h 49.48 v 189.1 l -179.45,310.6 v 623.2 l 236.44,-458.6 239.69,-64.5 -297.22,1159.1 566.16,2112.7 443.17,443.1 -128.31,-477.9 129.97,-1137.8 572.55,-673.3 v -337.2 h 49.14 v 352.2 l -477.26,727.1 -223.79,1067.9 172.66,643.6" /><path
         id="path52"
         style="fill:#ffffff;fill-opacity:1;fill-rule:nonzero;stroke:none"
         d="m 9426.65,12641.2 -487.92,-809.6 -589.2,-251 10.06,-57.5 613.23,270.1 495.77,822.6 -41.94,25.4" /><path
         id="path54"
         style="fill:#ffffff;fill-opacity:1;fill-rule:nonzero;stroke:none"
         d="m 8582.84,11661.3 -30.29,-38.6 546.38,-429.8 30.43,38.8 -546.52,429.6" /><path
         id="path56"
         style="fill:#ffffff;fill-opacity:1;fill-rule:nonzero;stroke:none"
         d="m 8659.01,11111.9 279.72,-484.7 76.63,-20.3 35.16,-343 36.69,323.8 148.08,-39.9 152.47,-152.9 70.78,-266.3 v 537 l -3.66,5.8 -57.59,99.6 -275.99,74 z m 134.23,-134.2 308.95,-178.5 263.07,-70.1 43.74,-76.4 v -209.3 l -148.07,148.6 -289.78,77.8 -177.91,307.9" /><path
         id="path58"
         style="fill:#ffffff;fill-opacity:1;fill-rule:nonzero;stroke:none"
         d="M 8751.23,7802 8716.6,7767.3 9999.73,6415.4 11284,7767.3 11248.8,7802 9999.73,6553.5 8751.23,7802" /><path
         id="path60"
         style="fill:#ffffff;fill-opacity:1;fill-rule:nonzero;stroke:none"
         d="m 8688.38,8339.4 -34.63,-34.6 1345.98,-1346.6 1346.57,1346.6 -34.6,34.6 L 9999.73,7183.6 8688.38,8339.4" /><path
         id="path62"
         style="fill:#ffffff;fill-opacity:1;fill-rule:nonzero;stroke:none"
         d="m 9650.83,12322.1 c -31.95,-58.6 -48.47,-124 -48.47,-190.7 0,-219.5 178.38,-397.9 397.37,-397.9 219.47,0 397.87,178.4 397.87,397.9 0,66.7 -16.4,132.1 -48.5,190.7 l -46.3,-11.7 c 0,-167.8 -135.3,-303 -303.07,-303 -167.26,0 -302.55,135.2 -302.55,303 z m 11.19,-105.5 c 41.54,-148.5 176.31,-258.3 337.71,-258.3 161.87,0 296.77,109.8 338.17,258.3 7,-27.5 10.7,-56.4 10.7,-85.2 0,-192.8 -155.5,-348.3 -348.87,-348.3 -192.83,0 -348.36,155.5 -348.36,348.3 0,28.8 3.66,57.7 10.65,85.2" /><path
         id="path64"
         style="fill:#ffffff;fill-opacity:1;fill-rule:nonzero;stroke:none"
         d="m 9999.73,12646.5 c -118.71,0 -215.73,-97 -215.73,-215.7 0,-118.8 97.02,-216.3 215.73,-216.3 119.27,0 216.27,97.5 216.27,216.3 0,118.7 -97,215.7 -216.27,215.7 z m 0,-49 c 92.77,0 167.17,-74.5 167.17,-166.7 0,-92.7 -74.4,-166.7 -167.17,-166.7 -92.15,0 -166.72,74 -166.72,166.7 0,92.2 74.57,166.7 166.72,166.7" /><path
         id="path66"
         style="fill:#ffffff;fill-opacity:1;fill-rule:nonzero;stroke:none"
         d="m 8407.6,15173 -48.01,-10.7 352.09,-1545.8 329.72,-584.3 v -686.1 l -161.33,-280.2 -486.79,-280.7 -326.06,1216.7 371.74,1387.5 -47.88,12.2 -375,-1399.7 346.23,-1291.3 553.51,319.8 175.19,302.3 v 712.2 l -332.99,589.2 -350.42,1538.9" /><path
         id="path68"
         style="fill:#ffffff;fill-opacity:1;fill-rule:nonzero;stroke:none"
         d="m 8711.28,13632.1 -162,-604.8 221.06,-824.5 47.4,12.8 -217.86,811.7 158.74,591.8 -47.34,13" /><path
         id="path70"
         style="fill:#ffffff;fill-opacity:1;fill-rule:nonzero;stroke:none"
         d="m 8442.74,13845 -203.4,-760.6 216.79,-808.6 298.23,79.9 -12.25,47.4 -202.41,-18.1 -200.82,748.9 151.34,698.4 -47.48,12.7" /><path
         id="path72"
         style="fill:#ffffff;fill-opacity:1;fill-rule:nonzero;stroke:none"
         d="m 9999.73,13319.3 -576.95,-333.4 v -1203.4 l 576.95,-999.8 577.37,999.8 v 1203.4 l -12.3,7.4 z m 0,-57 528.37,-304.7 v -1161.7 l -528.37,-914.6 -527.81,914.6 v 1161.7 l 527.81,304.7" /><path
         id="path74"
         style="fill:#ffffff;fill-opacity:1;fill-rule:nonzero;stroke:none"
         d="m 10399.3,11498.6 -42.7,-24.5 185.3,-321.2 -351.5,-608.3 v -926.8 h 49.6 v 914 l 358.4,621.1 -199.1,345.7" /><path
         id="path76"
         style="fill:#ffffff;fill-opacity:1;fill-rule:nonzero;stroke:none"
         d="m 11650.4,11580.6 -272.1,-272 272.1,-272.3 272.2,272.3 z m 0,-69.7 202.5,-202.3 -202.5,-202.6 -202.4,202.6 202.4,202.3" /><path
         id="path78"
         style="fill:#ffffff;fill-opacity:1;fill-rule:nonzero;stroke:none"
         d="m 11650.4,11446.4 -137.8,-137.8 137.8,-138.1 138,138.1 z m 0,-69.6 68.2,-68.2 -68.2,-68.8 -68.7,68.8 68.7,68.2" /><path
         id="path80"
         style="fill:#ffffff;fill-opacity:1;fill-rule:nonzero;stroke:none"
         d="m 11778.9,11177.6 -49.1,-4.5 277.1,-3364.7 -803.3,-771.9 471.4,4031.7 -49,5.9 -487,-4167.6 919,882.6 -279.1,3388.5" /><path
         id="path82"
         style="fill:#ffffff;fill-opacity:1;fill-rule:nonzero;stroke:none"
         d="m 12533.6,11667.1 -771.7,-772 34.6,-35 688.1,688 v -215.7 l -288.2,-463.4 193.9,-1528.8 181.7,-181.6 160.8,279.7 33.1,-123.1 -769.3,-1332.2 42.7,-24.5 779.4,1349.9 -68.8,257.1 -188.6,-326.4 -124.6,124 -189.1,1494.7 286,460.8 v 348.5" /><path
         id="path84"
         style="fill:#ffffff;fill-opacity:1;fill-rule:nonzero;stroke:none"
         d="m 11056.5,15762.7 172.6,-643.6 -223.7,-1067.9 -477.3,-727.1 v -352.2 h 49 v 337.2 l 572.6,673.3 129.6,1137.8 -127.9,477.9 443.1,-443.1 566.2,-2112.7 -297.7,-1159.1 240.3,64.5 236.4,458.6 v -623.2 l -179.4,-310.6 v -189.1 h 49.5 v 175.8 l 178.9,310.6 v 819.7 l -318,-550.2 -137.9,-37.2 278.6,1040.2 -572.7,2138.1 -582.2,582.3" /><path
         id="path86"
         style="fill:#ffffff;fill-opacity:1;fill-rule:nonzero;stroke:none"
         d="m 10573.4,12641.2 -42.1,-25.4 495.9,-822.6 613.1,-270.1 10.1,57.5 -589.1,251 -487.9,809.6" /><path
         id="path88"
         style="fill:#ffffff;fill-opacity:1;fill-rule:nonzero;stroke:none"
         d="m 11417.1,11661.3 -546.4,-429.6 30.3,-38.8 546.5,429.8 -30.4,38.6" /><path
         id="path90"
         style="fill:#ffffff;fill-opacity:1;fill-rule:nonzero;stroke:none"
         d="m 7576.57,11140.7 -975.78,-1728.5 3398.94,-5507.8 3399.57,5507.8 -975.9,1728.5 -42.7,-24.5 912.5,-1704 -3293.47,-5409.2 -3293,5409.2 912.52,1704 -42.68,24.5" /><path
         id="path92"
         style="fill:#ffffff;fill-opacity:1;fill-rule:nonzero;stroke:none"
         d="m 7745.96,7634.7 -324.26,-276 2578.03,-4170.7 2578.67,4170.7 -324.4,276 -34.7,-35.2 297.8,-248.7 -2517.37,-4027.5 -2516.85,4027.5 297.7,248.7 -34.62,35.2" /><path
         id="path94"
         style="fill:#ffffff;fill-opacity:1;fill-rule:nonzero;stroke:none"
         d="m 11592.5,15173 -350.6,-1538.9 -332.9,-589.2 v -712.2 l 175.2,-302.3 553.5,-319.8 346.3,1291.3 -375.6,1399.7 -47.4,-12.2 371.8,-1387.5 -326,-1216.7 -486.8,280.7 -161.5,280.2 v 686.1 l 329.8,584.3 352,1545.8 -47.8,10.7" /><path
         id="path96"
         style="fill:#ffffff;fill-opacity:1;fill-rule:nonzero;stroke:none"
         d="m 11288.8,13632.1 -47.5,-13 158.7,-591.8 -217.7,-811.7 47.3,-12.8 221,824.5 -161.8,604.8" /><path
         id="path98"
         style="fill:#ffffff;fill-opacity:1;fill-rule:nonzero;stroke:none"
         d="m 11557.3,13845 -47.5,-12.7 151.2,-698.4 -200.7,-748.9 -202.5,18.1 -12.1,-47.4 298.2,-79.9 216.8,808.6 -203.4,760.6" /><path
         id="path100"
         style="fill:#ffffff;fill-opacity:1;fill-rule:nonzero;stroke:none"
         d="m 8391.61,7367.8 v -387.3 l 1135.65,-1302.7 72.97,114.4 -1159.61,1209.3 v 366.3 z m 3167.69,0 v -366.3 l -1159.6,-1209.3 73.1,-114.4 1135.6,1302.7 v 387.3 h -49.1" /><path
         id="path102"
         style="fill:#ffffff;fill-opacity:1;fill-rule:nonzero;stroke:none"
         d="m 11556.7,11147.6 47.4,-12.8 -213.6,-796.4 -407.5,-167.7 -36.2,-517.3 -54.3,480 -84.6,-35 -424.1,-501.4 -37.3,32 431.5,510.2 571.5,235.5 207.2,772.9" /><path
         id="path104"
         style="fill:#ffffff;fill-opacity:1;fill-rule:nonzero;stroke:none"
         d="m 11341,11111.9 -279.7,-484.7 -76.7,-20.3 -35.1,-343 -36.8,323.8 -148.1,-39.9 -152.8,-152.9 -70.4,-266.3 v 537 l 3.8,5.8 57,99.6 276.4,74 z m -134.3,-134.2 -309.4,-178.5 -262.6,-70.1 -43.7,-76.4 v -209.3 l 148.1,148.6 289.8,77.8 177.8,307.9" /><path
         id="path106"
         style="fill:#ffffff;fill-opacity:1;fill-rule:nonzero;stroke:none"
         d="m 10899.9,11633 27.7,-286.2 -37.2,-23.4 z m 36.3,-490.7 26.5,-270.7 -84.1,-26.6 7.5,231.7 27.2,52.3 22.9,13.3" /><path
         id="path108"
         style="fill:#ffffff;fill-opacity:1;fill-rule:nonzero;stroke:none"
         d="m 7738.03,10742.7 462.82,-405.7 -22.37,-275 -467.02,472.5 26.57,208.2" /><path
         id="path110"
         style="fill:#ffffff;fill-opacity:1;fill-rule:nonzero;stroke:none"
         d="m 7700.28,10287.9 463.35,-406.4 -22.37,-274.4 -467.15,472 26.17,208.8" /><path
         id="path112"
         style="fill:#ffffff;fill-opacity:1;fill-rule:nonzero;stroke:none"
         d="m 7618.18,9780.8 494.85,-512.3 -24.5,-299.5 -499.12,584.4 28.77,227.4" /><path
         id="path114"
         style="fill:#ffffff;fill-opacity:1;fill-rule:nonzero;stroke:none"
         d="m 7487.68,9288 558.83,-829.3 -22.37,-274.7 -596.19,974.6 59.73,129.4" /><path
         id="path116"
         style="fill:#ffffff;fill-opacity:1;fill-rule:nonzero;stroke:none"
         d="m 8807.16,7366.7 -826.77,888.5 -38.35,-466.1 918.85,-882.6 -53.73,460.2" /><path
         id="path118"
         style="fill:#ffffff;fill-opacity:1;fill-rule:nonzero;stroke:none"
         d="m 8677.59,8474.7 -634.88,533.3 -34.68,-415.5 723.43,-578 -53.87,460.2" /><path
         id="path120"
         style="fill:#ffffff;fill-opacity:1;fill-rule:nonzero;stroke:none"
         d="m 8522.12,9383.9 -414.41,417.7 -34.1,-415.5 502.24,-462.4 -53.73,460.2" /><path
         id="path122"
         style="fill:#ffffff;fill-opacity:1;fill-rule:nonzero;stroke:none"
         d="m 8463.53,10307.6 -254.62,125.1 -24.57,-281.2 313.28,-134.2 -34.09,290.3" /><path
         id="path124"
         style="fill:#ffffff;fill-opacity:1;fill-rule:nonzero;stroke:none"
         d="m 12262,10742.7 -462.9,-405.7 22.3,-275 467.2,472.5 -26.6,208.2" /><path
         id="path126"
         style="fill:#ffffff;fill-opacity:1;fill-rule:nonzero;stroke:none"
         d="m 12299.8,10287.9 -463.4,-406.4 22.4,-274.4 467,472 -26,208.8" /><path
         id="path128"
         style="fill:#ffffff;fill-opacity:1;fill-rule:nonzero;stroke:none"
         d="m 12381.9,9780.8 -494.9,-512.3 24.4,-299.5 499.2,584.4 -28.7,227.4" /><path
         id="path130"
         style="fill:#ffffff;fill-opacity:1;fill-rule:nonzero;stroke:none"
         d="m 12512.4,9288 -558.9,-829.3 22.4,-274.7 596.1,974.6 -59.6,129.4" /><path
         id="path132"
         style="fill:#ffffff;fill-opacity:1;fill-rule:nonzero;stroke:none"
         d="m 11192.9,7366.7 826.6,888.5 38.5,-466.1 -919,-882.6 53.9,460.2" /><path
         id="path134"
         style="fill:#ffffff;fill-opacity:1;fill-rule:nonzero;stroke:none"
         d="m 11322.3,8474.7 635.5,533.3 34.1,-415.5 -723.4,-578 53.8,460.2" /><path
         id="path136"
         style="fill:#ffffff;fill-opacity:1;fill-rule:nonzero;stroke:none"
         d="m 11536.4,10307.6 254.8,125.1 24.4,-281.2 -313.3,-134.2 34.1,290.3" /><path
         id="path138"
         style="fill:#ffffff;fill-opacity:1;fill-rule:nonzero;stroke:none"
         d="m 9999.73,12615.2 c -66.12,0 -119.85,-53.9 -119.85,-120 0,-66 53.73,-120.4 119.85,-120.4 66.57,0 120.47,54.4 120.47,120.4 0,66.1 -53.9,120 -120.47,120 z m 0,-27.3 c 51.77,0 93.17,-41.5 93.17,-92.7 0,-51.6 -41.4,-92.6 -93.17,-92.6 -51.14,0 -92.68,41 -92.68,92.6 0,51.2 41.54,92.7 92.68,92.7" /><path
         id="path140"
         style="fill:#ffffff;fill-opacity:1;fill-rule:nonzero;stroke:none"
         d="m 9999.73,15604.9 -707.98,-1559.6 44.88,-20.2 663.1,1461.1 663.67,-1461.1 44.8,20.2 z M 6836.3,8637.1 6345.64,7556.9 h 1093.1 v 49 H 6422.29 l 458.75,1011 -44.74,20.2" /><path
         id="path142"
         style="fill:#ffffff;fill-opacity:1;fill-rule:nonzero;stroke:none"
         d="m 13163.2,8637.1 -44.7,-20.2 459.1,-1011 h -1016.3 v -49 h 1092.6 l -490.7,1080.2" /><g
         transform="scale(1.02938)"
         id="g144"><path
           id="path146"
           style="fill:#ffffff;fill-opacity:1;fill-rule:nonzero;stroke:none"
           d="m 7875.26,16300 c -768.44,-577.5 -1221.22,-1482.5 -1222.31,-2443.8 1.09,-573 163.06,-1133.4 467.32,-1618.8 l 40.31,25.4 c -298.97,477.6 -458.35,1029.8 -459.96,1593.4 1.09,847.4 360.61,1648.5 978.96,2215.7 -342.55,-445.6 -532.92,-993.1 -533.94,-1560.8 1.02,-435.1 112.8,-863.1 324.37,-1243.4 l 41.99,23.3 c -208.08,373.1 -317.28,793.2 -318.31,1220.1 1.03,655.2 256.73,1283.4 713.06,1753.2 z m 3692.04,-11.4 -31.5,-35.7 c 456.4,-469.3 712,-1098 713.1,-1753.1 -1.1,-426.9 -110.7,-846.6 -318.3,-1219.7 l 41.9,-23.3 c 211.6,380.3 322.9,807.8 323.9,1243 v 0.5 c -0.5,567.2 -190.8,1114.6 -533.4,1560.2 617.8,-566.7 977.5,-1367.7 978.4,-2215.2 -0.9,-564.2 -160.4,-1116.2 -459.8,-1593.9 l 40.2,-25.4 c 304.2,485.4 466.3,1046.4 467.8,1619.3 -1.5,961.3 -453.8,1865.8 -1222.3,2443.3" /></g><path
         id="path148"
         style="fill:#ffffff;fill-opacity:1;fill-rule:nonzero;stroke:none"
         d="m 6912.93,7581.6 h 25.11 v -954.1 h -25.11 v 954.1" /><path
         id="path150"
         style="fill:#ffffff;fill-opacity:1;fill-rule:nonzero;stroke:none"
         d="m 6925.19,6850.1 -176.32,-176.4 176.32,-176.8 176.84,176.8 z m 0,-34.7 142.21,-141.7 -142.21,-142.2 -141.69,142.2 141.69,141.7" /><path
         id="path152"
         style="fill:#ffffff;fill-opacity:1;fill-rule:nonzero;stroke:none"
         d="m 6925.19,6644.5 -176.32,-176.4 176.32,-176.7 176.84,176.7 z m 0,-34.6 142.21,-141.8 -142.21,-142.1 -141.69,142.1 141.69,141.8" /><path
         id="path154"
         style="fill:#ffffff;fill-opacity:1;fill-rule:nonzero;stroke:none"
         d="m 6925.19,6408 -8.6,-9.1 -167.72,-167.8 176.32,-176.9 176.84,176.9 z m 0,-35.2 142.21,-141.7 -142.21,-141.7 -141.69,141.7 141.69,141.7" /><path
         id="path156"
         style="fill:#ffffff;fill-opacity:1;fill-rule:nonzero;stroke:none"
         d="m 6925.19,6188.4 -8.6,-8.5 -167.72,-168.3 176.32,-176.3 176.84,176.3 z m 0,-34.6 142.21,-142.2 -142.21,-141.7 -141.69,141.7 141.69,142.2" /><path
         id="path158"
         style="fill:#ffffff;fill-opacity:1;fill-rule:nonzero;stroke:none"
         d="m 6925.19,5864.6 c -209.34,0 -379.8,-169.2 -379.8,-378.2 0,-92.5 35.23,-182.2 97.55,-250.9 0,-0.3 0,-0.9 0.53,-0.9 0.4,-1.2 0.93,-2.3 1.53,-2.8 l 19.71,14 c -21.77,41.9 -33.49,88.3 -33.49,135.7 0,161.4 131.56,292.4 294.49,292.4 162.47,0 294.04,-131 294.04,-293 0,-46.8 -11.72,-93.2 -33.56,-135.1 l 19.78,-14 c 0.92,1.1 0.92,2.1 2.06,2.8 0,0 0,0.6 0.53,0.9 61.79,68.7 96.95,158.4 96.95,250.9 0,209 -170.45,378.2 -379.8,378.2 z m 0,-24.5 c 196.48,0 355.75,-158.2 355.75,-353.7 0,-56.5 -17.98,-108.7 -43.08,-158.2 2.6,17.6 6.39,35.2 6.39,52.7 0,175.3 -142.76,317.5 -319.06,317.5 -175.79,0 -318.54,-142.2 -318.54,-317.5 0,-17.5 3.66,-35.1 6.39,-52.7 -25.1,49 -43.21,101.7 -43.21,158.2 0,195.5 159.26,353.7 355.36,353.7" /><path
         id="path160"
         style="fill:#ffffff;fill-opacity:1;fill-rule:nonzero;stroke:none"
         d="m 6925.19,5306.4 c -75.11,0 -136.37,61.3 -136.37,136.9 0,75.8 61.26,136.9 136.37,136.9 75.7,0 136.89,-61.1 136.89,-136.9 0,-75.6 -61.19,-136.9 -136.89,-136.9 z m 0,31.4 c 58.66,0 105.92,46.9 105.92,105.5 0,58.7 -47.26,106 -105.92,106 -58.07,0 -105.4,-47.3 -105.4,-106 0,-58.6 47.33,-105.5 105.4,-105.5" /><path
         id="path162"
         style="fill:#ffffff;fill-opacity:1;fill-rule:nonzero;stroke:none"
         d="m 6925.19,5326.6 c -41.56,0 -75.65,34.1 -75.65,75.7 0,42.1 34.09,76.1 75.65,76.1 42.14,0 76.24,-34 76.24,-76.1 0,-41.6 -34.1,-75.7 -76.24,-75.7 z m 0,17.1 c 33.02,0 59.19,26.1 59.19,58.6 0,33 -26.17,59.1 -59.19,59.1 -32.44,0 -58.6,-26.1 -58.6,-59.1 0,-32.5 26.16,-58.6 58.6,-58.6" /><path
         id="path164"
         style="fill:#ffffff;fill-opacity:1;fill-rule:nonzero;stroke:none"
         d="m 13062,7581.6 h 24.6 v -954.1 h -24.6 v 954.1" /><path
         id="path166"
         style="fill:#ffffff;fill-opacity:1;fill-rule:nonzero;stroke:none"
         d="m 13074.3,6850.1 -176.3,-176.4 176.3,-176.8 176.9,176.8 z m 0,-34.7 142.3,-141.7 -142.3,-142.2 -141.6,142.2 141.6,141.7" /><path
         id="path168"
         style="fill:#ffffff;fill-opacity:1;fill-rule:nonzero;stroke:none"
         d="m 13074.3,6644.5 -176.3,-176.4 176.3,-176.7 176.9,176.7 z m 0,-34.6 142.3,-141.8 -142.3,-142.1 -141.6,142.1 141.6,141.8" /><path
         id="path170"
         style="fill:#ffffff;fill-opacity:1;fill-rule:nonzero;stroke:none"
         d="m 13074.3,6408 -8.5,-9.1 -167.8,-167.8 176.3,-176.9 176.9,176.9 z m 0,-35.2 142.3,-141.7 -142.3,-141.7 -141.6,141.7 141.6,141.7" /><path
         id="path172"
         style="fill:#ffffff;fill-opacity:1;fill-rule:nonzero;stroke:none"
         d="m 13074.3,6188.4 -8.5,-8.5 -167.8,-168.3 176.3,-176.3 176.9,176.3 z m 0,-34.6 142.3,-142.2 -142.3,-141.7 -141.6,141.7 141.6,142.2" /><path
         id="path174"
         style="fill:#ffffff;fill-opacity:1;fill-rule:nonzero;stroke:none"
         d="m 13074.3,5864.6 c -209.3,0 -379.7,-169.2 -379.7,-378.2 0,-92.5 35,-182.2 97.3,-250.9 0,-0.3 0,-0.9 0,-0.9 h 0.5 c 0.6,-1.2 1.2,-2.3 1.7,-2.8 l 19.8,14 c -22,41.9 -33.7,88.3 -33.7,135.7 0,161.4 131.5,292.4 294.1,292.4 163,0 294.5,-131 294.5,-293 0,-46.8 -11.7,-93.2 -33.5,-135.1 l 19.6,-14 c 1.2,1.1 1.2,2.1 2.2,2.8 0,0 0,0.6 0,0.9 62.3,68.7 97.5,158.4 97.5,250.9 0,209 -170.4,378.2 -380.3,378.2 z m 0,-24.5 c 196.5,0 355.8,-158.2 355.8,-353.7 0,-56.5 -18.1,-108.7 -43.1,-158.2 2.6,17.6 6.4,35.2 6.4,52.7 0,175.3 -142.7,317.5 -319.1,317.5 -175.7,0 -318.6,-142.2 -318.6,-317.5 0,-17.5 3.8,-35.1 6.5,-52.7 -25.1,49 -43.2,101.7 -43.2,158.2 0,195.5 158.7,353.7 355.3,353.7" /><path
         id="path176"
         style="fill:#ffffff;fill-opacity:1;fill-rule:nonzero;stroke:none"
         d="m 13074.3,5306.4 c -75.1,0 -136.9,61.3 -136.9,136.9 0,75.8 61.8,136.9 136.9,136.9 75.6,0 136.9,-61.1 136.9,-136.9 0,-75.6 -61.3,-136.9 -136.9,-136.9 z m 0,31.4 c 58.5,0 106,46.9 106,105.5 0,58.7 -47.5,106 -106,106 -58.6,0 -105.5,-47.3 -105.5,-106 0,-58.6 46.9,-105.5 105.5,-105.5" /><path
         id="path178"
         style="fill:#ffffff;fill-opacity:1;fill-rule:nonzero;stroke:none"
         d="m 13074.3,5326.6 c -41.6,0 -75.7,34.1 -75.7,75.7 0,42.1 34.1,76.1 75.7,76.1 42,0 76.1,-34 76.1,-76.1 0,-41.6 -34.1,-75.7 -76.1,-75.7 z m 0,17.1 c 33,0 59,26.1 59,58.6 0,33 -26,59.1 -59,59.1 -32.6,0 -58.6,-26.1 -58.6,-59.1 0,-32.5 26,-58.6 58.6,-58.6" /><path
         id="path180"
         style="fill:#ffffff;fill-opacity:1;fill-rule:nonzero;stroke:none"
         d="m 9999.73,6271 -21.24,-42.6 -619.09,-1198.3 h 1281.1 z m 0,-107 559.77,-1084.5 H 9440.43 Z" /><path
         id="path182"
         style="fill:#ffffff;fill-opacity:1;fill-rule:nonzero;stroke:none"
         d="m 9586.85,5434.8 412.88,-846.4 11.17,22.8 402.2,823.6 z m 39.02,-24.6 h 747.83 l -373.97,-765.8 z" /><path
         id="path184"
         style="fill:#ffffff;fill-opacity:1;fill-rule:nonzero;stroke:none"
         d="m 9722.28,5422.7 45.81,-94 H 10232 l 45.8,94 h -555.52" /><path
         id="path186"
         style="fill:#ffffff;fill-opacity:1;fill-rule:nonzero;stroke:none"
         d="m 9999.73,6405.4 -283.31,-555.2 h 110.73 v 24.6 h -70.25 l 242.83,476.7 243.47,-476.7 h -70.4 v -24.6 h 110.8 l -283.87,555.2" /><path
         id="path188"
         style="fill:#ffffff;fill-opacity:1;fill-rule:nonzero;stroke:none"
         d="m 9716.42,4979.8 283.31,-555 283.87,555 h -110.8 v -24.4 h 70.4 l -243.47,-476.7 -242.83,476.7 h 70.25 v 24.4 h -110.73" /><path
         id="path190"
         style="fill:#ffffff;fill-opacity:1;fill-rule:nonzero;stroke:none"
         d="m 9319.05,5730.4 -8.59,-9.1 -155.61,-155.5 164.2,-164.6 164.59,164.6 z m 0,-35 129.91,-129.6 -129.91,-130 -129.57,130 129.57,129.6" /><path
         id="path192"
         style="fill:#ffffff;fill-opacity:1;fill-rule:nonzero;stroke:none"
         d="m 9050.52,6050.5 -133.23,-133.2 133.23,-132.6 132.7,132.6 z m 0,-34.6 98.07,-98.6 -98.07,-97.9 -98.01,97.9 98.01,98.6" /><path
         id="path194"
         style="fill:#ffffff;fill-opacity:1;fill-rule:nonzero;stroke:none"
         d="m 8810.29,6358.4 -8.45,-9 -92.76,-92.1 101.21,-101.8 101.14,101.8 z m 0,-34.7 66.52,-66.4 -66.52,-66.7 -66.59,66.7 66.59,66.4" /><path
         id="path196"
         style="fill:#ffffff;fill-opacity:1;fill-rule:nonzero;stroke:none"
         d="m 8571.12,6688.7 -8.52,-9.1 -70.31,-69.7 78.83,-79.4 79.3,79.4 z m 0,-34.6 44.14,-44.2 -44.14,-44.3 -43.68,44.3 43.68,44.2" /><path
         id="path198"
         style="fill:#ffffff;fill-opacity:1;fill-rule:nonzero;stroke:none"
         d="m 10680.5,5730.4 -8.5,-9.1 -155.6,-155.5 164.1,-164.6 164.6,164.6 z m 0,-35 129.9,-129.6 -129.4,-130 -130,130 129.5,129.6" /><path
         id="path200"
         style="fill:#ffffff;fill-opacity:1;fill-rule:nonzero;stroke:none"
         d="m 10949.5,6050.5 -8.6,-8.4 -124.1,-124.8 132.7,-132.6 132.5,132.6 z m 0,-34.6 97.9,-98.6 -97.9,-97.9 -98,97.9 98,98.6" /><path
         id="path202"
         style="fill:#ffffff;fill-opacity:1;fill-rule:nonzero;stroke:none"
         d="m 11189.6,6358.4 -101.1,-101.1 101.1,-101.8 101.4,101.8 z m 0,-34.7 66.8,-66.4 -66.8,-66.7 -66.5,66.7 66.5,66.4" /><path
         id="path204"
         style="fill:#ffffff;fill-opacity:1;fill-rule:nonzero;stroke:none"
         d="m 11428.3,6688.7 -8.5,-9.1 -70.3,-69.7 78.8,-79.4 79.3,79.4 z m 0.5,-34.6 43.8,-44.2 -43.8,-44.3 -44.1,44.3 44.1,44.2" /><path
         id="path206"
         style="fill:#ffffff;fill-opacity:1;fill-rule:nonzero;stroke:none"
         d="m 9999.73,14934.8 -22.9,-68.7 -213.14,-629.1 236.04,-697.7 236.47,697.7 z m 0,-152.9 184.27,-544.9 -184.27,-544.3 -183.77,544.3 183.77,544.9" /><path
         id="path208"
         style="fill:#ffffff;fill-opacity:1;fill-rule:nonzero;stroke:none"
         d="m 9714.76,14117.2 -11.72,-28.2 -99.54,-247.2 111.26,-274.9 110.72,274.9 z m 0,-65.5 84.69,-209.9 -84.69,-209.2 -85.23,209.2 85.23,209.9" /><path
         id="path210"
         style="fill:#ffffff;fill-opacity:1;fill-rule:nonzero;stroke:none"
         d="m 10285.7,14117.2 -11.6,-28.2 -99.7,-247.2 111.3,-274.9 110.9,274.9 z m 0,-65.5 84.8,-209.9 -84.8,-209.2 -85.2,209.2 85.2,209.9" /></g></g></svg>
